<svg width="271" height="149" viewBox="0 0 271 149" fill="none" xmlns="http://www.w3.org/2000/svg">
<path d="M10 140.821L13.8611 137.749C17.7222 134.677 25.4444 128.532 33.1667 126.146C40.8889 123.759 48.6111 125.129 56.3333 113.31C64.0556 101.49 71.7778 76.4799 79.5 74.9389C87.2222 73.3978 94.9444 95.3258 102.667 101.085C110.389 106.845 118.111 96.4367 125.833 95.4883C133.556 94.54 141.278 103.052 149 95.9531C156.722 88.8541 164.444 66.1444 172.167 53.877C179.889 41.6096 187.611 39.7846 195.333 36.5672C203.056 33.3498 210.778 28.7399 218.5 37.5813C226.222 46.4226 233.944 68.7151 241.667 66.36C249.389 64.005 257.111 37.0025 260.972 23.5013L264.833 10" stroke="white" stroke-width="2"/>
<path d="M265 11C267.761 11 270 8.76142 270 6C270 3.23858 267.761 1 265 1C262.239 1 260 3.23858 260 6C260 8.76142 262.239 11 265 11Z" stroke="white" stroke-width="2" stroke-linecap="round" stroke-linejoin="round"/>
<path d="M6 148C8.76142 148 11 145.761 11 143C11 140.239 8.76142 138 6 138C3.23858 138 1 140.239 1 143C1 145.761 3.23858 148 6 148Z" stroke="white" stroke-width="2" stroke-linecap="round" stroke-linejoin="round"/>
</svg>
